# xmcd
#
# Track frame offsets:
#        150
#        34973
#        66135
#        97982
#        127137
#        140855
#        180325
#        210376
#        237415
#        261523
#        287184
#
# Disc length: 4306 seconds
#
# Revision: 0
# Processed by: cddbd v1.5.1PL2 Copyright (c) Steve Scherf et al.
# Submitted via: ExactAudioCopy v0.95a4
#
DISCID=ad10d00b
DTITLE=COLDFEET - BODYCHOP
DYEAR=1900
DGENRE=Club
TTITLE0=SLOW DOWN SAY IT AGAIN (sugiurumn Remix)
TTITLE1=BOOM,CLANG,BANG (Morel Remix)
TTITLE2=BODYPOP (Yukihiro Fukutomi Remix)
TTITLE3=UPTIGHT (COLDFEET Mix)
TTITLE4=OOWEE (Skit)
TTITLE5=BOOM,CLANG, BANG (akakage Remix)
TTITLE6=MOP ME UP (DJ NORI Re-Edit)
TTITLE7=ON YOUR OWN (Kentaro Takizawa Remix)
TTITLE8=I WISH YOU WERE MINE (Take 5 - w/Hajime Yoshizawa)
TTITLE9=THE INTERLUDE SONG (FreeTEMPO Remix)
TTITLE10=SUPERTHING (Little Big Bee Remix)
EXTD=
EXTT0=
EXTT1=
EXTT2=
EXTT3=
EXTT4=
EXTT5=
EXTT6=
EXTT7=
EXTT8=
EXTT9=
EXTT10=
PLAYORDER=
